<?xml version="1.0" encoding="UTF-8" standalone="no"?>
<!DOCTYPE svg PUBLIC "-//W3C//DTD SVG 1.1//EN" "http://www.w3.org/Graphics/SVG/1.1/DTD/svg11.dtd">
<svg width="91.80" height="100.62" viewBox="0.00 0.00 1530.00 1677.00" xmlns="http://www.w3.org/2000/svg" xmlns:xlink="http://www.w3.org/1999/xlink">
<g stroke-linecap="round" id="Calque_3">
<path d="M1302.00,831.00 L1443.00,989.00 L794.00,1635.00 L806.00,1602.00 L1302.00,831.00 Z" fill="rgb(219, 239, 246)" stroke="rgb(219, 239, 246)" stroke-width="3.00" stroke-opacity="1.00" stroke-linejoin="miter"/>
<path d="M229.00,833.00 L326.00,990.00 L729.00,1612.00 L706.00,1609.00 L87.00,987.00 L229.00,833.00 Z" fill="rgb(219, 239, 246)" stroke="rgb(219, 239, 246)" stroke-width="3.00" stroke-opacity="1.00" stroke-linejoin="miter"/>
<path d="M237.00,827.00 L322.00,975.00 L424.00,834.00 L378.00,827.00 L237.00,827.00 Z" fill="rgb(183, 223, 238)" stroke="rgb(183, 223, 238)" stroke-width="3.00" stroke-opacity="1.00" stroke-linejoin="miter"/>
<path d="M1118.00,845.00 L1210.00,962.00 L1297.00,827.00 L1130.00,828.00 L1118.00,845.00 Z" fill="rgb(183, 223, 238)" stroke="rgb(183, 223, 238)" stroke-width="3.00" stroke-opacity="1.00" stroke-linejoin="miter"/>
<path d="M336.00,990.00 L739.00,1613.00 L746.00,1599.00 L524.00,988.00 L336.00,990.00 Z" fill="rgb(183, 223, 238)" stroke="rgb(183, 223, 238)" stroke-width="3.00" stroke-opacity="1.00" stroke-linejoin="miter"/>
<path d="M337.00,984.00 L522.00,981.00 L429.00,838.00 L332.00,970.00 L337.00,984.00 Z" fill="rgb(176, 208, 219)" stroke="rgb(176, 208, 219)" stroke-width="3.00" stroke-opacity="1.00" stroke-linejoin="miter"/>
<path d="M541.00,978.00 L599.00,903.00 L740.00,943.00 L754.00,981.00 L541.00,978.00 Z" fill="rgb(134, 180, 197)" stroke="rgb(134, 180, 197)" stroke-width="3.00" stroke-opacity="1.00" stroke-linejoin="miter"/>
<path d="M772.00,984.00 L801.00,939.00 L940.00,906.00 L994.00,975.00 L980.00,983.00 L772.00,984.00 Z" fill="rgb(134, 180, 197)" stroke="rgb(134, 180, 197)" stroke-width="3.00" stroke-opacity="1.00" stroke-linejoin="miter"/>
<path d="M464.00,856.00 L589.00,900.00 L532.00,979.00 L459.00,872.00 L464.00,856.00 Z" fill="rgb(204, 243, 196)" stroke="rgb(255, 255, 255)" stroke-width="3.00" stroke-opacity="1.00" stroke-linejoin="miter"/>
<path d="M943.00,897.00 L1003.00,976.00 L1079.00,856.00 L943.00,897.00 Z" fill="rgb(204, 243, 196)" stroke="rgb(255, 255, 255)" stroke-width="3.00" stroke-opacity="1.00" stroke-linejoin="miter"/>
<path d="M1294.00,1148.00 L1512.00,1235.00 L821.00,1623.00 L1278.00,1158.00 L1294.00,1148.00 Z" fill="rgb(228, 228, 228)" stroke="rgb(228, 228, 228)" stroke-width="3.00" stroke-opacity="1.00" stroke-linejoin="miter"/>
<path d="M534.00,990.00 L764.00,1627.00 L763.00,986.00 L534.00,990.00 Z" fill="rgb(147, 208, 230)" stroke="rgb(147, 208, 230)" stroke-width="3.00" stroke-opacity="1.00" stroke-linejoin="miter"/>
<path d="M772.00,991.00 L774.00,1621.00 L993.00,988.00 L772.00,991.00 Z" fill="rgb(147, 208, 230)" stroke="rgb(147, 208, 230)" stroke-width="3.00" stroke-opacity="1.00" stroke-linejoin="miter"/>
<path d="M518.00,117.50 L625.00,157.50 L765.00,211.50 L908.00,157.00 L1008.50,119.50 L764.00,15.50 L518.00,117.50 Z" fill="rgb(255, 255, 255)" stroke="rgb(255, 255, 255)" stroke-width="3.00" stroke-opacity="1.00" stroke-linejoin="miter"/>
<path d="M33.33,1234.00 L245.33,1150.67 L717.33,1624.67 L691.33,1623.33 L41.33,1248.67 L33.33,1234.00 Z" fill="rgb(239, 239, 239)" stroke="rgb(239, 239, 239)" stroke-width="3.00" stroke-opacity="1.00" stroke-linejoin="miter"/>
<path d="M1013.33,975.33 L1106.00,833.33 L1169.33,915.33 L1208.00,970.67 L1200.67,978.00 L1013.33,975.33 Z" fill="rgb(176, 208, 219)" stroke="rgb(176, 208, 219)" stroke-width="3.00" stroke-opacity="1.00" stroke-linejoin="miter"/>
<path d="M1199.00,988.00 L1097.00,1145.00 L998.00,1296.00 L788.00,1619.00 L809.00,1539.00 L1008.00,984.00 L1199.00,988.00 Z" fill="rgb(183, 223, 238)" stroke="rgb(183, 223, 238)" stroke-width="3.00" stroke-opacity="1.00" stroke-linejoin="miter"/>
<path d="M756.00,948.67 L774.67,962.00 L767.33,971.33 L753.33,962.00 L756.00,948.67 Z" fill="rgb(56, 90, 104)" stroke="rgb(56, 90, 104)" stroke-width="3.00" stroke-opacity="1.00" stroke-linejoin="miter"/>
<path d="M766.67,752.00 L767.33,952.00 L1025.33,868.00 L1188.00,635.33 L766.67,752.00 Z" fill="rgb(228, 228, 228)" stroke="rgb(228, 228, 228)" stroke-width="3.00" stroke-opacity="1.00" stroke-linejoin="miter"/>
<path d="M767.33,752.00 L766.67,952.00 L508.67,868.00 L346.00,635.33 L767.33,752.00 Z" fill="rgb(239, 239, 239)" stroke="rgb(239, 239, 239)" stroke-width="3.00" stroke-opacity="1.00" stroke-linejoin="miter"/>
<path d="M1189.00,635.00 L1025.00,868.00 L1373.50,703.50 L1189.00,635.00 Z" fill="rgb(239, 239, 239)" stroke="rgb(239, 239, 239)" stroke-width="3.00" stroke-opacity="1.00" stroke-linejoin="miter"/>
<path d="M344.00,635.00 L508.00,868.00 L159.50,703.50 L344.00,635.00 Z" fill="rgb(255, 255, 255)" stroke="rgb(239, 239, 239)" stroke-width="3.00" stroke-opacity="1.00" stroke-linejoin="miter"/>
<path d="M765.33,212.00 L1013.33,118.67 L1116.67,558.67 L765.33,664.00 L765.33,212.00 Z" fill="rgb(228, 228, 228)" stroke="rgb(228, 228, 228)" stroke-width="3.00" stroke-opacity="1.00" stroke-linejoin="miter"/>
<path d="M764.67,212.00 L516.67,118.67 L413.33,558.67 L764.67,664.00 L764.67,212.00 Z" fill="rgb(239, 239, 239)" stroke="rgb(239, 239, 239)" stroke-width="3.00" stroke-opacity="1.00" stroke-linejoin="miter"/>
<path d="M411.00,561.00 L516.00,118.50" fill="none" stroke="rgb(0, 0, 0)" stroke-width="20.00" stroke-opacity="1.00" stroke-linejoin="round"/>
<path d="M516.46,116.55 L763.50,18.00" fill="none" stroke="rgb(0, 0, 0)" stroke-width="20.00" stroke-opacity="1.00" stroke-linejoin="round"/>
<path d="M411.02,560.89 L763.50,663.00" fill="none" stroke="rgb(0, 0, 0)" stroke-width="20.00" stroke-opacity="1.00" stroke-linejoin="round"/>
<path d="M1118.00,561.00 L1013.00,118.50" fill="none" stroke="rgb(0, 0, 0)" stroke-width="20.00" stroke-opacity="1.00" stroke-linejoin="round"/>
<path d="M1012.54,116.55 L765.50,18.00" fill="none" stroke="rgb(0, 0, 0)" stroke-width="20.00" stroke-opacity="1.00" stroke-linejoin="round"/>
<path d="M1117.98,560.89 L765.50,663.00" fill="none" stroke="rgb(0, 0, 0)" stroke-width="20.00" stroke-opacity="1.00" stroke-linejoin="round"/>
<path d="M145.50,702.00 L343.50,633.00" fill="none" stroke="rgb(0, 0, 0)" stroke-width="20.00" stroke-opacity="1.00" stroke-linejoin="round"/>
<path d="M150.00,703.50 L510.00,877.50" fill="none" stroke="rgb(0, 0, 0)" stroke-width="20.00" stroke-opacity="1.00" stroke-linejoin="round"/>
<path d="M502.50,874.50 L762.00,949.50" fill="none" stroke="rgb(0, 0, 0)" stroke-width="20.00" stroke-opacity="1.00" stroke-linejoin="round"/>
<path d="M349.50,631.50 L763.50,750.00" fill="none" stroke="rgb(0, 0, 0)" stroke-width="20.00" stroke-opacity="1.00" stroke-linejoin="round"/>
<path d="M237.00,825.00 L402.00,826.50" fill="none" stroke="rgb(0, 0, 0)" stroke-width="20.00" stroke-opacity="1.00" stroke-linejoin="round"/>
<path d="M94.50,981.00 L237.00,825.00" fill="none" stroke="rgb(0, 0, 0)" stroke-width="20.00" stroke-opacity="1.00" stroke-linejoin="round"/>
<path d="M96.00,981.00 L760.50,982.50" fill="none" stroke="rgb(0, 0, 0)" stroke-width="20.00" stroke-opacity="1.00" stroke-linejoin="round"/>
<path d="M238.50,838.50 L319.50,976.50" fill="none" stroke="rgb(0, 0, 0)" stroke-width="20.00" stroke-opacity="1.00" stroke-linejoin="round"/>
<path d="M316.50,976.50 L420.00,840.00" fill="none" stroke="rgb(0, 0, 0)" stroke-width="20.00" stroke-opacity="1.00" stroke-linejoin="round"/>
<path d="M442.50,846.00 L526.50,976.50" fill="none" stroke="rgb(0, 0, 0)" stroke-width="20.00" stroke-opacity="1.00" stroke-linejoin="round"/>
<path d="M534.00,979.50 L592.50,903.00" fill="none" stroke="rgb(0, 0, 0)" stroke-width="20.00" stroke-opacity="1.00" stroke-linejoin="round"/>
<path d="M739.50,943.50 L762.00,984.00" fill="none" stroke="rgb(0, 0, 0)" stroke-width="20.00" stroke-opacity="1.00" stroke-linejoin="round"/>
<path d="M91.50,985.50 L765.00,1663.50" fill="none" stroke="rgb(0, 0, 0)" stroke-width="20.00" stroke-opacity="1.00" stroke-linejoin="round"/>
<path d="M321.00,984.00 L765.00,1660.50" fill="none" stroke="rgb(0, 0, 0)" stroke-width="20.00" stroke-opacity="1.00" stroke-linejoin="round"/>
<path d="M768.00,1662.00 L528.00,982.50" fill="none" stroke="rgb(0, 0, 0)" stroke-width="20.00" stroke-opacity="1.00" stroke-linejoin="round"/>
<path d="M765.00,990.00 L767.95,1654.38 L769.06,1656.30" fill="none" stroke="rgb(0, 0, 0)" stroke-width="20.00" stroke-opacity="1.00" stroke-linejoin="round"/>
<path d="M21.00,1234.50 L243.00,1146.00" fill="none" stroke="rgb(0, 0, 0)" stroke-width="20.00" stroke-opacity="1.00" stroke-linejoin="round"/>
<path d="M21.00,1236.00 L765.00,1663.50" fill="none" stroke="rgb(0, 0, 0)" stroke-width="20.00" stroke-opacity="1.00" stroke-linejoin="round"/>
<path d="M1388.50,701.00 L1190.50,632.00" fill="none" stroke="rgb(0, 0, 0)" stroke-width="20.00" stroke-opacity="1.00" stroke-linejoin="round"/>
<path d="M1384.00,702.50 L1024.00,876.50" fill="none" stroke="rgb(0, 0, 0)" stroke-width="20.00" stroke-opacity="1.00" stroke-linejoin="round"/>
<path d="M1031.50,873.50 L772.00,948.50" fill="none" stroke="rgb(0, 0, 0)" stroke-width="20.00" stroke-opacity="1.00" stroke-linejoin="round"/>
<path d="M1184.50,630.50 L770.50,749.00" fill="none" stroke="rgb(0, 0, 0)" stroke-width="20.00" stroke-opacity="1.00" stroke-linejoin="round"/>
<path d="M1297.00,824.00 L1132.00,825.50" fill="none" stroke="rgb(0, 0, 0)" stroke-width="20.00" stroke-opacity="1.00" stroke-linejoin="round"/>
<path d="M1439.50,980.00 L1297.00,824.00" fill="none" stroke="rgb(0, 0, 0)" stroke-width="20.00" stroke-opacity="1.00" stroke-linejoin="round"/>
<path d="M1438.00,980.00 L773.50,981.50" fill="none" stroke="rgb(0, 0, 0)" stroke-width="20.00" stroke-opacity="1.00" stroke-linejoin="round"/>
<path d="M1295.50,837.50 L1214.50,975.50" fill="none" stroke="rgb(0, 0, 0)" stroke-width="20.00" stroke-opacity="1.00" stroke-linejoin="round"/>
<path d="M1217.50,975.50 L1114.00,839.00" fill="none" stroke="rgb(0, 0, 0)" stroke-width="20.00" stroke-opacity="1.00" stroke-linejoin="round"/>
<path d="M1091.50,845.00 L1007.50,975.50" fill="none" stroke="rgb(0, 0, 0)" stroke-width="20.00" stroke-opacity="1.00" stroke-linejoin="round"/>
<path d="M1000.00,978.50 L941.50,902.00" fill="none" stroke="rgb(0, 0, 0)" stroke-width="20.00" stroke-opacity="1.00" stroke-linejoin="round"/>
<path d="M794.50,942.50 L772.00,983.00" fill="none" stroke="rgb(0, 0, 0)" stroke-width="20.00" stroke-opacity="1.00" stroke-linejoin="round"/>
<path d="M1442.50,984.50 L769.00,1662.50" fill="none" stroke="rgb(0, 0, 0)" stroke-width="20.00" stroke-opacity="1.00" stroke-linejoin="round"/>
<path d="M1213.00,983.00 L769.00,1659.50" fill="none" stroke="rgb(0, 0, 0)" stroke-width="20.00" stroke-opacity="1.00" stroke-linejoin="round"/>
<path d="M766.00,1661.00 L1006.00,981.50" fill="none" stroke="rgb(0, 0, 0)" stroke-width="20.00" stroke-opacity="1.00" stroke-linejoin="round"/>
<path d="M769.00,989.00 L766.05,1653.38 L763.60,1657.59" fill="none" stroke="rgb(0, 0, 0)" stroke-width="20.00" stroke-opacity="1.00" stroke-linejoin="round"/>
<path d="M1513.00,1233.50 L1291.00,1145.00" fill="none" stroke="rgb(0, 0, 0)" stroke-width="20.00" stroke-opacity="1.00" stroke-linejoin="round"/>
<path d="M1513.00,1235.00 L769.00,1662.50" fill="none" stroke="rgb(0, 0, 0)" stroke-width="20.00" stroke-opacity="1.00" stroke-linejoin="round"/>
<path d="M844.67,727.33 L765.33,751.33" fill="none" stroke="rgb(0, 0, 0)" stroke-width="20.00" stroke-opacity="1.00" stroke-linejoin="round"/>
<path d="M692.67,930.00 L766.67,950.67" fill="none" stroke="rgb(0, 0, 0)" stroke-width="20.00" stroke-opacity="1.00" stroke-linejoin="round"/>
<path d="M908.00,909.33 L765.33,951.33" fill="none" stroke="rgb(0, 0, 0)" stroke-width="20.00" stroke-opacity="1.00" stroke-linejoin="round"/>
<path d="M624.00,162.00 L768.00,213.00" fill="none" stroke="rgb(0, 0, 0)" stroke-width="20.00" stroke-opacity="1.00" stroke-linejoin="round"/>
<path d="M763.50,442.50 L763.50,221.35" fill="none" stroke="rgb(0, 0, 0)" stroke-width="20.00" stroke-opacity="1.00" stroke-linejoin="round"/>
<path d="M905.00,162.00 L761.00,213.00" fill="none" stroke="rgb(0, 0, 0)" stroke-width="20.00" stroke-opacity="1.00" stroke-linejoin="round"/>
<path d="M765.50,442.50 L765.50,221.35" fill="none" stroke="rgb(0, 0, 0)" stroke-width="20.00" stroke-opacity="1.00" stroke-linejoin="round"/>
</g>
</svg>
